<?xml version="1.0" standalone="no"?>
<!DOCTYPE svg PUBLIC "-//W3C//DTD SVG 20010904//EN"
 "http://www.w3.org/TR/2001/REC-SVG-20010904/DTD/svg10.dtd">
<svg version="1.0" xmlns="http://www.w3.org/2000/svg"
 width="1280.000000pt" height="1280.000000pt" viewBox="0 0 1280.000000 1280.000000"
 preserveAspectRatio="xMidYMid meet">
<metadata>
Created by potrace 1.14, written by Peter Selinger 2001-2017
</metadata>
<g transform="translate(0.000000,1280.000000) scale(0.100000,-0.100000)"
fill="#000000" stroke="none">
<path d="M0 6400 l0 -6400 2435 0 2435 0 -14 33 c-8 17 -611 1312 -1340 2876
-730 1564 -1334 2860 -1342 2880 -55 128 -86 271 -85 396 1 181 54 311 181
448 109 116 207 178 513 321 144 68 456 216 693 329 897 427 937 443 1129 454
114 6 186 -5 282 -43 163 -65 303 -201 416 -405 36 -66 183 -381 757 -1624
534 -1156 731 -1580 739 -1588 4 -4 167 69 362 162 459 218 672 321 676 325 2
2 10 144 18 317 8 173 17 365 20 427 3 61 7 165 10 230 3 64 8 160 10 212 3
52 7 147 10 210 7 163 24 534 30 675 3 66 7 158 10 205 2 47 7 141 10 210 38
860 53 1179 60 1310 2 47 7 148 10 225 14 363 25 530 41 630 73 435 343 655
803 655 591 -1 916 -274 969 -815 6 -61 6 -172 1 -294 -5 -108 -29 -698 -54
-1311 -25 -613 -54 -1335 -65 -1605 -11 -269 -27 -654 -35 -855 -8 -201 -17
-426 -21 -500 l-5 -135 212 -165 c117 -91 373 -290 568 -443 196 -152 513
-400 705 -550 518 -404 976 -762 1321 -1032 169 -132 313 -244 321 -248 12 -7
14 780 14 5438 l0 5445 -6400 0 -6400 0 0 -6400z"/>
<path d="M8475 2871 c-33 -15 -249 -115 -480 -221 -231 -106 -424 -196 -429
-200 -4 -5 54 -138 129 -297 76 -158 247 -517 380 -798 133 -280 312 -657 398
-836 85 -179 176 -369 200 -422 l46 -97 1800 0 c991 0 1801 2 1801 4 0 2 -30
23 -67 47 -37 24 -122 87 -189 139 -67 52 -184 143 -261 202 -76 58 -203 156
-283 218 -80 62 -206 159 -280 216 -157 121 -517 398 -920 710 -157 121 -410
316 -563 434 -153 118 -404 312 -557 430 -275 212 -331 256 -542 418 -59 45
-111 82 -115 81 -4 0 -35 -13 -68 -28z"/>
</g>
</svg>
